# xmcd
#
# Track frame offsets:
#	150
#	17930
#	33147
#	48605
#	64642
#	79270
#	99042
#	112215
#	128452
#	139407
#	154597
#	171035
#	183650
#	223300
#	235737
#	251110
#	266842
#
# Disc length: 3773 seconds
#
# Revision: 1
# Processed by: cddbd v1.5.2PL0 Copyright (c) Steve Scherf et al.
# Submitted via: EZCDAudioConverter 2.1.7.1
#
DISCID=f20ebb11
DTITLE=V/A - Trojan Roots 3/3
DYEAR=1900
DGENRE=
TTITLE0=Velvet Shadows - Babylon A Fall Down
TTITLE1=Sugar Minott - Never Gonna Give Up Jah
TTITLE2=Johnny Osbourne - Nyah Man
TTITLE3=Ras Michael and The Sons Of Negus - Unity
TTITLE4=Johnny Clarke - Moving On To Zion
TTITLE5=Silvertones - African Dub
TTITLE6=Max Romeo - The Coming Of Jah
TTITLE7=Mr. Bojangles - Ten Dread Commandments
TTITLE8=The Ethiopians - Condition Bad A Yard
TTITLE9=Truth Fact and Correct - Babylon Deh Pon Fire
TTITLE10=Mighty Diamonds - Ghetto Living
TTITLE11=Delroy Wilson - Adisabab
TTITLE12=Anthony 'Sangie' Davis and Lee Perry - Words
TTITLE13=Lizzard - Milk And Honey
TTITLE14=Cornel Campbell - The Judgement Come
TTITLE15=The Heptones - Mistry Babylon
TTITLE16=Linval Thompson - I Love Marijuana
EXTD=
EXTT0=
EXTT1=
EXTT2=
EXTT3=
EXTT4=
EXTT5=
EXTT6=
EXTT7=
EXTT8=
EXTT9=
EXTT10=
EXTT11=
EXTT12=
EXTT13=
EXTT14=
EXTT15=
EXTT16=
PLAYORDER=
